<svg width="256" height="256" xmlns="http://www.w3.org/2000/svg" xml:space="preserve" version="1.1">

 <g>
  <title>Layer 1</title>
  <g stroke="null" id="svg_1">
   <g stroke="null" id="svg_2">
    <path stroke="null" id="svg_3" d="m214.41458,176.366l-21.36917,0l-19.82581,-14.48322c-1.92975,-1.40161 -4.63138,-0.99536 -6.03299,0.93439c-1.4014,1.92975 -0.99515,4.63141 0.9346,6.03302l10.23758,7.51581l-6.8252,0c-1.46252,0 -2.60007,1.34067 -2.336,2.78293l6.29706,36.604c0.20313,1.13776 1.17816,1.9704 2.33603,1.9704l15.13324,0l15.3364,0c1.15787,0 2.15323,-0.83282 2.33603,-1.99069l6.09393,-36.60425c0.26407,-1.44199 -0.85318,-2.76239 -2.3157,-2.76239zm-21.59283,12.7973c-1.82819,0.28415 -3.53427,-0.97507 -3.81885,-2.80322c-0.10159,-0.71094 0.02029,-1.40161 0.32498,-2.01102c0.46741,-0.93439 1.3815,-1.64536 2.49872,-1.80783c1.23911,-0.18265 2.43759,0.32516 3.14856,1.2594c0.34509,0.44687 0.58884,0.97501 0.67032,1.56409c0.26407,1.80807 -0.97504,3.51419 -2.82373,3.79858z"/>
    <path stroke="null" id="svg_4" d="m104.84589,76.32397c4.89545,0 10.27844,-2.72195 10.27844,-2.72195c-2.53912,-1.48285 -3.83899,-4.42828 -4.4689,-7.39398c2.66122,4.40796 7.27209,7.31271 12.49258,7.31271s9.83154,-2.90475 12.49252,-7.31271c-0.6297,2.98602 -1.92972,5.91113 -4.46887,7.39398c0,0 5.383,2.72195 10.27863,2.72195c3.16885,0 6.15491,-1.13754 7.33307,-4.9361c0.18283,-0.56876 -0.06097,-1.17816 -0.58911,-1.44223c-1.767,-0.95471 -5.64703,-3.69696 -5.64703,-9.34402c0,-7.31271 1.82819,-29.45399 -19.39902,-29.45399s-19.39902,22.14128 -19.39902,29.45399c0,5.64706 -3.87979,8.38931 -5.64703,9.34402c-0.52814,0.28439 -0.77191,0.8938 -0.58908,1.44223c1.17795,3.77826 4.16379,4.9361 7.33282,4.9361z"/>
    <path stroke="null" id="svg_5" d="m171.81821,141.65091c3.10791,-2.31549 3.75793,-6.72363 1.44223,-9.83133l-33.65884,-45.2576c-7.1705,-9.54718 -21.45062,-9.12057 -30.36807,-2.47821c-0.02029,0.02032 -27.88989,20.76001 -27.88989,20.76001l-16.83957,-9.32373l0,16.06747l13.99573,7.75961c1.05627,0.58908 2.23447,0.87347 3.41263,0.87347c1.48285,0 2.96567,-0.46722 4.2048,-1.38132l15.88483,-11.82224l0,17.44897l-16.81924,46.92328c-0.58908,1.56412 0.58908,3.25009 2.25476,3.25009l14.56448,0l0,36.34012c0,5.22049 4.22513,9.44562 9.44559,9.44562s9.44562,-4.22513 9.44562,-9.44562l0,-36.38074l4.54993,0l0,36.34015c0,5.22028 4.22534,9.44562 9.44559,9.44562c5.22049,0 9.44562,-4.22534 9.44562,-9.44562l0,-36.34015l14.56448,0c1.68597,0 2.84384,-1.66565 2.25494,-3.25009l-16.81943,-46.92328l0,-8.02368l17.6929,23.78665c1.38129,1.84869 3.49387,2.82352 5.64703,2.82352c1.42191,0.02029 2.88446,-0.42636 4.14389,-1.36099z"/>
    <path stroke="null" id="svg_6" d="m60.64455,171.91748l0,-62.48315l0,-5.32202l0,-61.14246c0,-2.23444 -1.82816,-4.06262 -4.06259,-4.06262s-4.06264,1.82819 -4.06264,4.06262l0,128.48041c1.01566,-0.20313 2.07195,-0.30472 3.10791,-0.30472c1.7061,0 3.4126,0.26407 5.01732,0.77194z"/>
    <path stroke="null" id="svg_7" d="m86.19846,218.55658c-6.70334,-3.35168 -12.16754,-9.87241 -12.16754,-18.62717c0,-8.75513 -5.13922,-12.5535 -7.17053,-13.71133c-2.45789,-0.95471 -5.32204,-1.62506 -8.40962,-1.88913c-0.91408,-0.08124 -1.8688,-0.12207 -2.82353,-0.12207c-0.40627,0 -0.83282,0 -1.23909,0.02054c-4.42827,0.16251 -8.5112,1.15765 -11.68004,2.72174c-4.7939,3.18915 -4.36732,10.03467 -4.36732,10.03467c0,21.71451 16.31143,26.54926 30.83531,26.54926c6.39865,0 12.45193,-0.9346 16.59579,-1.78778c1.60471,-0.3045 1.88913,-2.45767 0.42657,-3.18872z"/>
    <path stroke="null" id="svg_8" d="m51.74721,180.14426c0.83286,-0.08102 1.68602,-0.14218 2.53915,-0.16248c0.44688,-0.02032 0.89378,-0.02032 1.34065,-0.02032c1.05629,0 2.09229,0.04044 3.10791,0.12189c0.85315,0.06091 1.70631,0.16248 2.53914,0.28433c0.71097,0.10156 1.40163,0.22348 2.09224,0.36566c0.52814,0.12186 1.0563,0.24374 1.58444,0.36566c-0.28436,-0.60941 -0.58908,-1.17819 -0.93439,-1.68597c-0.46722,-0.69067 -0.97504,-1.30008 -1.5032,-1.7876c-0.40622,-0.36581 -0.83282,-0.67053 -1.27972,-0.89377c-0.1828,-0.10156 -0.38593,-0.18283 -0.56876,-0.2641c-1.58443,-0.69061 -3.29071,-1.05624 -5.01733,-1.05624c-1.05629,0 -2.09224,0.14218 -3.10789,0.40625c-0.65004,0.16251 -1.30006,0.38593 -1.92976,0.67035c-0.1828,0.08121 -0.36563,0.16248 -0.54846,0.24374c-0.44685,0.22345 -0.89375,0.54843 -1.32031,0.93439c-0.93443,0.85315 -1.76726,2.05185 -2.39696,3.43295c1.05626,-0.2641 2.15318,-0.50784 3.29071,-0.69067c0.69066,-0.10156 1.3815,-0.20313 2.11255,-0.26407z"/>
   </g>
  </g>
  <g id="svg_9"/>
  <g id="svg_10"/>
  <g id="svg_11"/>
  <g id="svg_12"/>
  <g id="svg_13"/>
  <g id="svg_14"/>
  <g id="svg_15"/>
  <g id="svg_16"/>
  <g id="svg_17"/>
  <g id="svg_18"/>
  <g id="svg_19"/>
  <g id="svg_20"/>
  <g id="svg_21"/>
  <g id="svg_22"/>
  <g id="svg_23"/>
 </g>
</svg>